<svg xmlns="http://www.w3.org/2000/svg" xmlns:xlink="http://www.w3.org/1999/xlink" width="13.157" height="13.73" viewBox="0 0 13.157 13.73">
  <defs>
    <clipPath id="clip-path">
      <rect id="矩形_79" data-name="矩形 79" width="13.157" height="13.73" fill="#00f6ff"/>
    </clipPath>
  </defs>
  <g id="工位" clip-path="url(#clip-path)">
    <path id="路径_37" data-name="路径 37" d="M240.789,709.2a1.884,1.884,0,1,0-1.909-1.888,1.9,1.9,0,0,0,1.909,1.888Zm0-3.148a1.257,1.257,0,1,1-1.273,1.26,1.265,1.265,0,0,1,1.273-1.26Zm0,0" transform="translate(-238.882 -703.878)" fill="#00f6ff"/>
    <path id="路径_38" data-name="路径 38" d="M261.333,630.684a.627.627,0,0,0,.318.544.642.642,0,0,0,.636,0,.625.625,0,0,0,0-1.089.642.642,0,0,0-.636,0,.627.627,0,0,0-.318.544Zm8.065,7.762h-2.13l-3.391-5.873a2.319,2.319,0,0,1-2.333.839,3.294,3.294,0,0,1-1.059-.629l3.393,5.664h-2.13a.839.839,0,0,0-.839.839v.838a.839.839,0,0,0,.839.839H269.4a.839.839,0,0,0,.841-.839v-.838a.839.839,0,0,0-.841-.839Zm3.735-7.122a.424.424,0,0,0-.587-.111l-2.017,1.36-1.35-1.581v-1.166l1.3-1.516,2.029,1.365a.429.429,0,0,0,.589-.111.418.418,0,0,0-.114-.583l-2.455-1.652a.429.429,0,0,0-.589.11.4.4,0,0,0-.065.278l-1.282,1.5h-.76a.562.562,0,0,0-.562.56v-.141h-2.755v.022a2.605,2.605,0,0,1,0,2.054v.022h2.755v-.141a.562.562,0,0,0,.562.561h.79a.557.557,0,0,0,.343-.121l.965,1.13a.4.4,0,0,0,.067.276.425.425,0,0,0,.587.11l2.439-1.644a.415.415,0,0,0,.113-.58Zm0,0" transform="translate(-260.062 -627.251)" fill="#00f6ff"/>
  </g>
</svg>
