<svg id="工具" xmlns="http://www.w3.org/2000/svg" xmlns:xlink="http://www.w3.org/1999/xlink" width="10" height="10" viewBox="0 0 10 10">
  <defs>
    <clipPath id="clip-path">
      <rect id="矩形_120" data-name="矩形 120" width="10" height="10" fill="#00cbff"/>
    </clipPath>
  </defs>
  <g id="工具-2" data-name="工具" transform="translate(-413.76 -834.092)" style="isolation: isolate">
    <g id="组_43" data-name="组 43" transform="translate(413.76 834.092)">
      <g id="组_42" data-name="组 42" transform="translate(0 0)" clip-path="url(#clip-path)">
        <path id="路径_41" data-name="路径 41" d="M418.839,840.414l.468.474-.3.312a.39.39,0,0,0,.066.547l2.356,2.433a.378.378,0,0,0,.474.03l1.179-1.189a.419.419,0,0,0-.069-.553l-2.335-2.4a.4.4,0,0,0-.538-.036l-.306.324-.491-.5Zm-.324-1.4-2.526-2.589v-.8l-1.491-.919-.738.745.9,1.49.792.006,2.491,2.547Zm-4.075,4.355a.385.385,0,1,1,.769,0,.4.4,0,0,1-.384.384l-.332.342a.757.757,0,0,0,1.035,0l4.5-5.016a2.285,2.285,0,0,0,1.231.337,2.484,2.484,0,0,0,1.613-.6,2.548,2.548,0,0,0,.674-2.891l-1.611,1.618-1.364-1.4,1.611-1.6a2.31,2.31,0,0,0-2.412.28,2.694,2.694,0,0,0-.933,1.458,2.625,2.625,0,0,0,.4,2.114l-5.064,4.317a.809.809,0,0,0-.162.793Zm0,0a.41.41,0,0,0,.384.384l-.332.342s-.437-.39-.478-.6l.426-.128Zm0,0" transform="translate(-413.76 -834.316)" fill="#00cbff"/>
      </g>
    </g>
  </g>
</svg>
