<svg id="工具箱" xmlns="http://www.w3.org/2000/svg" xmlns:xlink="http://www.w3.org/1999/xlink" width="71" height="71" viewBox="0 0 71 71">
  <defs>
    <linearGradient id="linear-gradient" x1="0.237" y1="0.046" x2="0.76" y2="0.93" gradientUnits="objectBoundingBox">
      <stop offset="0" stop-color="#b1e4ff"/>
      <stop offset="1" stop-color="#00a8ff"/>
    </linearGradient>
    <clipPath id="clip-path">
      <rect id="矩形_120" data-name="矩形 120" width="28.46" height="28.494" fill="url(#linear-gradient)"/>
    </clipPath>
  </defs>
  <g id="减去_2" data-name="减去 2" transform="translate(3415.858 3151.858)" fill="rgba(0,168,255,0.24)">
    <path d="M -3359.20703125 -3081.357666015625 L -3415.3583984375 -3081.357666015625 L -3415.3583984375 -3137.509033203125 L -3401.508544921875 -3151.357666015625 L -3345.358154296875 -3151.357666015625 L -3345.358154296875 -3095.207275390625 L -3359.20703125 -3081.357666015625 Z" stroke="none"/>
    <path d="M -3359.414306640625 -3081.857666015625 L -3345.858154296875 -3095.41455078125 L -3345.858154296875 -3150.857666015625 L -3401.30126953125 -3150.857666015625 L -3414.8583984375 -3137.3017578125 L -3414.8583984375 -3081.857666015625 L -3359.414306640625 -3081.857666015625 M -3359 -3080.857666015625 L -3415.8583984375 -3080.857666015625 L -3415.8583984375 -3137.716064453125 L -3401.715576171875 -3151.857666015625 L -3344.858154296875 -3151.857666015625 L -3344.858154296875 -3095.000244140625 L -3359 -3080.857666015625 Z" stroke="none" fill="#00a8ff"/>
  </g>
  <g id="路径_44" data-name="路径 44" transform="translate(56 56)" fill="none">
    <path d="M15,4V15H4Z" stroke="none"/>
    <path d="M 14 6.414219856262207 L 6.414219856262207 14 L 14 14 L 14 6.414219856262207 M 15 4 L 15 15 L 4 15 L 15 4 Z" stroke="none" fill="#00a8ff"/>
  </g>
  <g id="路径_45" data-name="路径 45" transform="translate(-4 -4)" fill="none">
    <path d="M4,15V4H15Z" stroke="none"/>
    <path d="M 5 12.58578014373779 L 12.58578014373779 5 L 5 5 L 5 12.58578014373779 M 4 15 L 4 4 L 15 4 L 4 15 Z" stroke="none" fill="#00a8ff"/>
  </g>
  <g id="组_47" data-name="组 47" transform="translate(-392.87 -813.07)" style="isolation: isolate">
    <g id="组_43" data-name="组 43" transform="translate(413.76 834.092)">
      <g id="组_42" data-name="组 42" transform="translate(0 0)" clip-path="url(#clip-path)">
        <path id="路径_41" data-name="路径 41" d="M428.216,851.674l1.333,1.352-.856.89a1.111,1.111,0,0,0,.189,1.558l6.7,6.931a1.075,1.075,0,0,0,1.349.086l3.356-3.389a1.194,1.194,0,0,0-.2-1.574l-6.646-6.846a1.149,1.149,0,0,0-1.53-.1l-.872.924-1.4-1.438Zm-.921-3.988-7.189-7.377v-2.276l-4.245-2.619-2.1,2.122,2.561,4.245,2.254.017,7.091,7.257Zm-11.6,12.409a1.095,1.095,0,1,1,2.188,0,1.139,1.139,0,0,1-1.094,1.1l-.946.976a2.154,2.154,0,0,0,2.945,0L431.6,847.874a6.5,6.5,0,0,0,3.5.958,7.063,7.063,0,0,0,4.59-1.723,7.266,7.266,0,0,0,1.92-8.238l-4.585,4.61-3.883-3.993,4.585-4.564s-2.917-1.78-6.866.8a7.676,7.676,0,0,0-2.654,4.153,7.485,7.485,0,0,0,1.141,6.025l-14.412,12.3a2.306,2.306,0,0,0-.461,2.259Zm0,0a1.168,1.168,0,0,0,1.094,1.1l-.946.976s-1.244-1.111-1.36-1.706l1.212-.365Zm0,0" transform="translate(-413.76 -834.299)" fill="url(#linear-gradient)"/>
      </g>
    </g>
  </g>
  <path id="联合_2" data-name="联合 2" d="M-3385.5-3166v0Zm-44.5,0h0Z" transform="translate(3452.5 3170.5)" fill="none" stroke="#00a8ff" stroke-width="1" opacity="0.55"/>
  <path id="联合_1" data-name="联合 1" d="M-3429.5-3121h0v0h0Z" transform="translate(3433.5 3188.5)" fill="none" stroke="#00a8ff" stroke-width="1" opacity="0.55"/>
</svg>
