<svg id="工装" xmlns="http://www.w3.org/2000/svg" xmlns:xlink="http://www.w3.org/1999/xlink" width="10" height="11" viewBox="0 0 10 11">
  <defs>
    <clipPath id="clip-path">
      <rect id="矩形_189" data-name="矩形 189" width="10" height="11" fill="#00cbff"/>
    </clipPath>
  </defs>
  <g id="组_72" data-name="组 72">
    <g id="组_71" data-name="组 71" transform="translate(0 0)" clip-path="url(#clip-path)">
      <path id="路径_86" data-name="路径 86" d="M178.474,569.874a.814.814,0,1,0,.832.813.824.824,0,0,0-.832-.813Zm5.828,0a.814.814,0,1,0,.833.813.824.824,0,0,0-.833-.813Zm.7-1.476h-7.343v-6.5a.531.531,0,0,0-.193-.409l-1.014-.842a.552.552,0,0,0-.768.064.528.528,0,0,0,.064.753l.821.682v6.787a.54.54,0,0,0,.545.535h7.887a.535.535,0,1,0,0-1.07Zm0,0" transform="translate(-175.56 -560.514)" fill="#00cbff"/>
    </g>
  </g>
  <path id="路径_87" data-name="路径 87" d="M388.3,717.443h6.1a.37.37,0,0,0,.363-.378v-1.655a.37.37,0,0,0-.363-.377h-6.1a.37.37,0,0,0-.363.377v1.655a.37.37,0,0,0,.363.378Zm2.26-1.4a.086.086,0,0,1,.084-.087h1.413a.086.086,0,0,1,.084.087v.383a.086.086,0,0,1-.084.088h-1.413a.086.086,0,0,1-.084-.088v-.383Zm-2.26-1.415h6.1a.37.37,0,0,0,.363-.377V712.6a.37.37,0,0,0-.363-.378h-6.1a.37.37,0,0,0-.363.378v1.655a.37.37,0,0,0,.363.377Zm2.26-1.4a.086.086,0,0,1,.084-.088h1.413a.086.086,0,0,1,.084.088v.383a.086.086,0,0,1-.084.088h-1.413a.086.086,0,0,1-.084-.088v-.383Zm0,0" transform="translate(-384.776 -710.158)" fill="#00cbff"/>
</svg>
