<svg id="料箱" xmlns="http://www.w3.org/2000/svg" xmlns:xlink="http://www.w3.org/1999/xlink" width="71" height="71" viewBox="0 0 71 71">
  <defs>
    <linearGradient id="linear-gradient" x1="0.237" y1="0.046" x2="0.76" y2="0.93" gradientUnits="objectBoundingBox">
      <stop offset="0" stop-color="#77f9f8"/>
      <stop offset="1" stop-color="#11dfdd"/>
    </linearGradient>
    <linearGradient id="linear-gradient-2" x1="0.569" y1="-1.08" x2="1.93" y2="0.718" gradientUnits="objectBoundingBox">
      <stop offset="0" stop-color="#83f8f6"/>
      <stop offset="1" stop-color="#1fd0ce"/>
    </linearGradient>
    <clipPath id="clip-path">
      <rect id="矩形_121" data-name="矩形 121" width="27.856" height="27.818" fill="url(#linear-gradient-2)"/>
    </clipPath>
  </defs>
  <g id="减去_2" data-name="减去 2" transform="translate(3415.858 3151.858)" fill="rgba(34,206,205,0.24)">
    <path d="M -3359.20703125 -3081.357666015625 L -3415.3583984375 -3081.357666015625 L -3415.3583984375 -3137.509033203125 L -3401.508544921875 -3151.357666015625 L -3345.358154296875 -3151.357666015625 L -3345.358154296875 -3095.207275390625 L -3359.20703125 -3081.357666015625 Z" stroke="none"/>
    <path d="M -3359.414306640625 -3081.857666015625 L -3345.858154296875 -3095.41455078125 L -3345.858154296875 -3150.857666015625 L -3401.30126953125 -3150.857666015625 L -3414.8583984375 -3137.3017578125 L -3414.8583984375 -3081.857666015625 L -3359.414306640625 -3081.857666015625 M -3359 -3080.857666015625 L -3415.8583984375 -3080.857666015625 L -3415.8583984375 -3137.716064453125 L -3401.715576171875 -3151.857666015625 L -3344.858154296875 -3151.857666015625 L -3344.858154296875 -3095.000244140625 L -3359 -3080.857666015625 Z" stroke="none" fill="#1fd0ce"/>
  </g>
  <g id="路径_44" data-name="路径 44" transform="translate(56 56)" fill="none">
    <path d="M15,4V15H4Z" stroke="none"/>
    <path d="M 14 6.414219856262207 L 6.414219856262207 14 L 14 14 L 14 6.414219856262207 M 15 4 L 15 15 L 4 15 L 15 4 Z" stroke="none" fill="#1fd0ce"/>
  </g>
  <g id="路径_45" data-name="路径 45" transform="translate(-4 -4)" fill="none">
    <path d="M4,15V4H15Z" stroke="none"/>
    <path d="M 5 12.58578014373779 L 12.58578014373779 5 L 5 5 L 5 12.58578014373779 M 4 15 L 4 4 L 15 4 L 4 15 Z" stroke="none" fill="#1fd0ce"/>
  </g>
  <g id="组_50" data-name="组 50" transform="translate(21.037 22.011)">
    <g id="组_45" data-name="组 45" transform="translate(0)" clip-path="url(#clip-path)">
      <path id="路径_42" data-name="路径 42" d="M519.333,973.208l-2.56-4.433a.892.892,0,0,0-.768-.448h-5.121a.884.884,0,0,0-.768.444l-2.56,4.436a.883.883,0,0,0,0,.885l2.56,4.433a.891.891,0,0,0,.768.444H516a.883.883,0,0,0,.768-.444l2.56-4.433a.882.882,0,0,0,0-.885Zm-5.889,3.062a2.621,2.621,0,1,1,2.62-2.621,2.621,2.621,0,0,1-2.62,2.621Zm0,0" transform="translate(-507.436 -951.191)" fill="url(#linear-gradient-2)"/>
      <path id="路径_43" data-name="路径 43" d="M536.6,950.846l-2.932-2.932.514-1.066a1.328,1.328,0,0,0-.622-1.774,1.335,1.335,0,0,0-1.52.257,1.318,1.318,0,0,0-.257.362l-.111.231-.933-.932.514-1.066a1.328,1.328,0,0,0-.622-1.774,1.331,1.331,0,0,0-1.777.619l-.111.232-.933-.933.514-1.066a1.327,1.327,0,0,0-.622-1.773,1.331,1.331,0,0,0-1.777.618l-.111.232-.933-.933.514-1.066a1.328,1.328,0,0,0-.622-1.774,1.335,1.335,0,0,0-1.52.257,2.021,2.021,0,0,0-.368.593l-1.231-1.257,2.2-2.2a1.335,1.335,0,0,0,0-1.882l-2.424-2.424a1.34,1.34,0,0,0-1.881,0l-2.248,2.248-1.977,1.974-.005,0-4.468,4.471a1.341,1.341,0,0,0,0,1.881l2.425,2.424a1.347,1.347,0,0,0,1.881,0l2.2-2.2,2.742,2.741-.514,1.066a1.329,1.329,0,0,0,1.634,1.834,1.312,1.312,0,0,0,.758-.679l.111-.232.933.933-.514,1.066a1.344,1.344,0,0,0,.019,1.2,1.33,1.33,0,0,0,1.618.635,1.31,1.31,0,0,0,.758-.679l.111-.232.933.933-.508,1.082a1.33,1.33,0,1,0,2.4,1.155l.111-.232.933.933-.514,1.066a1.334,1.334,0,0,0,.26,1.52,1.348,1.348,0,0,0,1.564.232,1.334,1.334,0,0,0,.571-.6l.111-.232,1.428,1.428a1.342,1.342,0,0,0,1.882,0l2.427-2.418a1.346,1.346,0,0,0,0-1.882Zm0,0" transform="translate(-509.144 -929.008)" fill="url(#linear-gradient-2)"/>
    </g>
  </g>
  <path id="联合_2" data-name="联合 2" d="M-3385.5-3166v0Zm-44.5,0h0Z" transform="translate(3452.5 3170.5)" fill="none" stroke="#1fd0ce" stroke-width="1" opacity="0.55"/>
  <path id="联合_1" data-name="联合 1" d="M-3429.5-3121h0v0h0Z" transform="translate(3433.5 3188.5)" fill="none" stroke="#1fd0ce" stroke-width="1" opacity="0.55"/>
</svg>
