<svg xmlns="http://www.w3.org/2000/svg" xmlns:xlink="http://www.w3.org/1999/xlink" width="39.423" height="54.023" viewBox="0 0 39.423 54.023">
  <defs>
    <clipPath id="clip-path">
      <rect id="矩形_118" data-name="矩形 118" width="39.423" height="54.023" fill="#ff9100"/>
    </clipPath>
  </defs>
  <g id="组_36" data-name="组 36" transform="translate(-273 -595)">
    <g id="组_35" data-name="组 35" transform="translate(273 595)">
      <g id="组_34" data-name="组 34" transform="translate(0 0)" clip-path="url(#clip-path)">
        <path id="路径_40" data-name="路径 40" d="M286.743,630.3a8.61,8.61,0,0,1-6.615,3.213,6.309,6.309,0,0,1-1.323-.142l3.544,7.56h9.4Zm-3.78-14.269a8.87,8.87,0,0,1,3.26,2.126l3.118-8.694a6.612,6.612,0,0,1-8.032-2.835l-3.26,9.119a9.571,9.571,0,0,1,2.032-.236,8.625,8.625,0,0,1,2.882.52Zm8.788-15.545a5.23,5.23,0,0,0-9.639.52,5.051,5.051,0,0,0,.189,3.969,5.217,5.217,0,0,0,2.977,2.693,5.051,5.051,0,0,0,3.969-.189,5.32,5.32,0,0,0,2.693-3.024,5.05,5.05,0,0,0-.189-3.969Zm-2.551,3.071a2.051,2.051,0,0,1-1.229,1.275,2.162,2.162,0,0,1-1.8.047,2.051,2.051,0,0,1-1.276-1.229,2.162,2.162,0,0,1-.047-1.8,2.051,2.051,0,0,1,1.228-1.276,2.537,2.537,0,0,1,3.166,1.087,3.653,3.653,0,0,1-.047,1.89Zm17.293,39.169H277.435a4.013,4.013,0,0,0-4.016,4.016v2.221h37.09v-2.221a4.013,4.013,0,0,0-4.016-4.016Zm5.575-36.192a.726.726,0,0,0-.614-.236l-9.072.52a4.331,4.331,0,0,1-2.835-.9,4.229,4.229,0,0,1,0-6.71,4.294,4.294,0,0,1,2.835-.85l9.072.567a.994.994,0,0,0,.614-.236.761.761,0,0,0,.283-.614.866.866,0,0,0-.662-.85l-9.827-2.174a2.579,2.579,0,0,0-2.221.662l-2.835,2.788a.723.723,0,0,1-.473.189H292.7a6.6,6.6,0,0,1,.756,1.229,6.292,6.292,0,0,1,.283,5.056,7.859,7.859,0,0,1-.756,1.559h3.354a.71.71,0,0,1,.52.189l2.788,2.787a2.3,2.3,0,0,0,2.221.661L311.69,608a.907.907,0,0,0,.662-.85.761.761,0,0,0-.283-.614Zm-34.3,24.711a7,7,0,0,0,5.434-.283,7.157,7.157,0,0,0,3.638-4.064,7,7,0,0,0-.284-5.433,7.113,7.113,0,0,0-13.135.709,7,7,0,0,0,.284,5.434,7.156,7.156,0,0,0,4.063,3.638Zm-.8-7.891a3.2,3.2,0,0,1,1.7-1.89,3.666,3.666,0,0,1,1.418-.331,3.337,3.337,0,0,1,3.166,4.441,3.2,3.2,0,0,1-1.7,1.89,3.409,3.409,0,0,1-2.552.142,2.987,2.987,0,0,1-1.89-1.654,3.529,3.529,0,0,1-.142-2.6Zm0,0" transform="translate(-273 -595.014)" fill="#ff9100"/>
      </g>
    </g>
  </g>
</svg>
