<svg id="电工-未在岗" xmlns="http://www.w3.org/2000/svg" xmlns:xlink="http://www.w3.org/1999/xlink" width="68" height="68" viewBox="0 0 68 68">
  <defs>
    <linearGradient id="linear-gradient" x1="0.438" y1="0.055" x2="0.948" y2="0.979" gradientUnits="objectBoundingBox">
      <stop offset="0" stop-color="#ebf7fe"/>
      <stop offset="1" stop-color="#c9e1ee"/>
    </linearGradient>
    <clipPath id="clip-path">
      <rect id="矩形_191" data-name="矩形 191" width="8.419" height="11.023" fill="url(#linear-gradient)"/>
    </clipPath>
  </defs>
  <g id="椭圆_14" data-name="椭圆 14" transform="translate(3 3)" fill="rgba(183,213,229,0.24)" stroke="#b7d5e5" stroke-width="2">
    <circle cx="31" cy="31" r="31" stroke="none"/>
    <circle cx="31" cy="31" r="30" fill="none"/>
  </g>
  <g id="椭圆_16" data-name="椭圆 16" fill="none" stroke="#b7d5e5" stroke-width="1" opacity="0.6">
    <circle cx="34" cy="34" r="34" stroke="none"/>
    <circle cx="34" cy="34" r="33.5" fill="none"/>
  </g>
  <g id="组_86" data-name="组 86" transform="translate(-293 -664)">
    <path id="减去_4" data-name="减去 4" d="M-3424.659-3135.981h0a20.575,20.575,0,0,1-2.63-1.109c-1.187-.609-2.621-1.548-2.71-2.559v-1.216c.088-1.343,1.469-1.952,3.381-2.795.594-.262,1.267-.559,1.959-.907.126,0,1.39,6.022,1.867,8.343l-1.866.243Zm2.637-.209h-.763a.17.17,0,0,1,0-.017l0-.017.284-.037h.005c.031,0,.2-.029.457-.063h0l-.016-.1c-.422-2.556-1.392-8.506-1.278-8.563.289-.132.547-.264.8-.391a11.262,11.262,0,0,1,1.286-.587c.111-.055,1.055-.609.208-2.931-.284-.286-.557-.539-.8-.762-1.359-1.264-2.258-2.1-2.258-5.52h13.328c0,3.354-.894,4.185-2.247,5.442-.257.238-.522.485-.806.771-.833,2.512-.1,2.916-.07,2.931.7.255,1.363.554,2.162.918a5.2,5.2,0,0,0-3.916,5.054,5.2,5.2,0,0,0,1.442,3.608,26.519,26.519,0,0,0-3.228-.227,39.951,39.951,0,0,0-4.6.355h0l.022.133Zm14.022-19.754h-18.741a3.086,3.086,0,0,1,1.278-2.212c.266-.206.458-.355.458-.65a5.574,5.574,0,0,1,.976-3.141,8.468,8.468,0,0,1,2.147-2.146,13,13,0,0,1,3.124-1.623,5.542,5.542,0,0,1,1.509-.264,2.785,2.785,0,0,1,1.2.264,14.187,14.187,0,0,1,3.124,1.728c1.425,1.051,3.124,2.8,3.124,5.182,0,.318.167.469.42.7a4.685,4.685,0,0,1,1.384,2.163Z" transform="translate(3744.394 3847.139)" stroke="rgba(0,0,0,0)" stroke-miterlimit="10" stroke-width="1" fill="url(#linear-gradient)"/>
    <g id="组_83" data-name="组 83" transform="translate(116.967 129.884)">
      <g id="组_82" data-name="组 82" transform="translate(215 570)">
        <g id="组_81" data-name="组 81" transform="translate(0 0)" clip-path="url(#clip-path)">
          <path id="路径_92" data-name="路径 92" d="M214.971,576.678l5.445-6.045a.353.353,0,0,1,.606.314l-.756,3.338a.187.187,0,0,0,.183.229h2.494a.353.353,0,0,1,.251.6l-6.205,6.294a.353.353,0,0,1-.571-.4l1.676-3.567a.186.186,0,0,0-.174-.265l-2.676.088a.353.353,0,0,1-.274-.589Zm0,0" transform="translate(-214.881 -570.508)" fill="url(#linear-gradient)"/>
        </g>
      </g>
    </g>
  </g>
</svg>
