<svg id="钳工-未在岗" xmlns="http://www.w3.org/2000/svg" xmlns:xlink="http://www.w3.org/1999/xlink" width="68" height="68" viewBox="0 0 68 68">
  <defs>
    <linearGradient id="linear-gradient" x1="0.438" y1="0.055" x2="0.909" y2="0.97" gradientUnits="objectBoundingBox">
      <stop offset="0" stop-color="#ebf7fe"/>
      <stop offset="1" stop-color="#b7d5e5"/>
    </linearGradient>
  </defs>
  <g id="椭圆_12" data-name="椭圆 12" transform="translate(3 3)" fill="rgba(183,213,229,0.24)" stroke="#b7d5e5" stroke-width="2">
    <circle cx="31" cy="31" r="31" stroke="none"/>
    <circle cx="31" cy="31" r="30" fill="none"/>
  </g>
  <g id="椭圆_15" data-name="椭圆 15" fill="none" stroke="#b7d5e5" stroke-width="1" opacity="0.6">
    <circle cx="34" cy="34" r="34" stroke="none"/>
    <circle cx="34" cy="34" r="33.5" fill="none"/>
  </g>
  <g id="组_79" data-name="组 79" transform="translate(-292 -663)">
    <path id="减去_4" data-name="减去 4" d="M5.34,30h0C5.289,29.983.185,28.29,0,26.34V25.1c.1-1.335,1.474-1.943,3.383-2.784.6-.262,1.27-.56,1.958-.905.151,0,1.85,8.26,1.867,8.343L5.341,30Zm2.638-.21H7.215s0-.01,0-.02l0-.012.284-.037c.009,0,.179-.026.464-.063-.429-2.584-1.411-8.6-1.3-8.662.288-.132.547-.264.8-.391a11.305,11.305,0,0,1,1.286-.587c.11-.055,1.055-.608.208-2.931-.28-.282-.543-.527-.8-.763C6.793,15.059,5.9,14.224,5.9,10.8H19.223c0,3.353-.894,4.183-2.246,5.44-.258.239-.524.487-.808.773-.835,2.518-.077,2.927-.07,2.931.7.257,1.394.568,2.161.919a5.224,5.224,0,0,0-2.473,8.662,26.539,26.539,0,0,0-3.229-.226,40.067,40.067,0,0,0-4.6.355l.022.132ZM22,10.036H3.258A3.087,3.087,0,0,1,4.536,7.823c.265-.206.457-.355.457-.649A5.575,5.575,0,0,1,5.97,4.033,8.474,8.474,0,0,1,8.117,1.887,12.922,12.922,0,0,1,11.241.264,5.534,5.534,0,0,1,12.749,0a2.789,2.789,0,0,1,1.2.264,14.293,14.293,0,0,1,3.124,1.728C18.5,3.042,20.2,4.794,20.2,7.174c0,.317.167.468.419.7A4.691,4.691,0,0,1,22,10.035Z" transform="translate(312.394 680.159)" stroke="rgba(0,0,0,0)" stroke-miterlimit="10" stroke-width="1" fill="url(#linear-gradient)"/>
    <g id="组_78" data-name="组 78" transform="translate(25.866 -137.327)">
      <path id="路径_91" data-name="路径 91" d="M383.255,839.842l-1.551-1.551,2.037-2.036a2.28,2.28,0,0,0-2.873.287l-.913.913a2.279,2.279,0,0,0-.287,2.873L372.993,847a1.1,1.1,0,0,0,1.551,1.551l5.345-5.345,1.33-1.33a2.28,2.28,0,0,0,2.873-.287l.913-.913a2.28,2.28,0,0,0,.287-2.873Zm-9.1,8.323a.548.548,0,1,1,0-.775.546.546,0,0,1,0,.775Zm0,0" transform="translate(-69.389 -1.277)" fill="url(#linear-gradient)"/>
    </g>
  </g>
</svg>
